<?xml version="1.0" encoding="iso-8859-1"?>
<!-- Uploaded to: SVG Repo, www.svgrepo.com, Generator: SVG Repo Mixer Tools -->
<svg height="800px" width="800px" version="1.1" id="Layer_1" xmlns="http://www.w3.org/2000/svg" xmlns:xlink="http://www.w3.org/1999/xlink" 
	 viewBox="0 0 326.926 326.926" xml:space="preserve">
<g>
	<path style="fill:#C3C6C8;" d="M283.527,304.75c0-16.365-13.266-29.632-29.631-29.632H232.25
		c-16.365,0-29.632-13.267-29.632-29.631v-5.291c0-21.625-17.53-39.156-39.155-39.156s-39.155,17.531-39.155,39.156v5.291
		c0,16.364-13.267,29.631-29.632,29.631H73.029c-16.365,0-29.631,13.267-29.631,29.632v8.679h240.129V304.75z"/>
	<g>
		<circle style="fill:#E8E8E8;" cx="163.463" cy="125.654" r="125.654"/>
		<circle style="fill:#61B4E4;" cx="163.463" cy="125.654" r="78.998"/>
		<circle style="fill:#333E48;" cx="163.463" cy="125.654" r="55.871"/>
		<circle style="fill:#1E252B;" cx="163.463" cy="125.654" r="27.348"/>
		<circle style="fill:#7D868C;" cx="186.392" cy="108.831" r="16.226"/>
		<path style="fill:#C3C6C8;" d="M288.619,114.501c-5.94,0.263-10.68,5.147-10.68,11.153c0,6.005,4.739,10.891,10.68,11.152
			c0.323-3.676,0.498-7.393,0.498-11.152S288.942,118.177,288.619,114.501z"/>
		<path style="fill:#C3C6C8;" d="M38.308,114.501c5.941,0.263,10.68,5.147,10.68,11.153c0,6.005-4.739,10.891-10.68,11.152
			c-0.324-3.676-0.499-7.393-0.499-11.152S37.983,118.177,38.308,114.501z"/>
	</g>
	<path style="fill:#333E48;" d="M43.398,309.195v9.553c0,4.516,3.661,8.178,8.178,8.178H275.35c4.517,0,8.178-3.662,8.178-8.178
		v-9.553H43.398z"/>
</g>
</svg>